<svg t="1754730395092" class="icon" viewBox="0 0 1024 1024" version="1.1" xmlns="http://www.w3.org/2000/svg" p-id="8608" width="64" height="64"><path d="M121.088 619.648a114.56 114.56 0 0 1-36.864-24.576 114.624 114.624 0 0 1-24.576-36.8 114.368 114.368 0 0 1-8.96-45.056c0-15.808 3.008-30.72 8.96-44.608a114.688 114.688 0 0 1 61.44-60.992 114.368 114.368 0 0 1 54.016-8.576c2.752 0.256 5.44 0.384 8.192 0.384l159.616-193.216a55.296 55.296 0 0 1-5.312-17.92 165.76 165.76 0 0 1-1.216-20.48c0-15.872 3.008-30.912 8.96-45.056 6.08-14.208 14.272-26.496 24.64-36.864 10.368-10.368 22.592-18.56 36.8-24.576 14.208-5.952 29.184-8.96 45.056-8.96 15.808 0 30.848 3.008 44.992 8.96 14.208 6.016 26.496 14.208 36.864 24.576 10.368 10.368 18.56 22.656 24.576 36.864 6.016 14.144 8.96 29.184 8.96 44.992 0 13.12-2.048 25.536-6.08 37.248a140.352 140.352 0 0 1-16.832 33.152l138.368 309.44 79.36-141.568a138.816 138.816 0 0 1-14.72-30.72 114.368 114.368 0 0 1 3.264-80.64c6.08-14.208 14.272-26.496 24.64-36.864 10.368-10.368 22.592-18.56 36.8-24.512 14.208-6.016 29.184-9.024 45.056-9.024 15.808 0 30.848 3.008 44.992 8.96 14.208 6.016 26.624 14.208 37.248 24.576a114.368 114.368 0 0 1 33.92 81.92 116.48 116.48 0 0 1-33.92 83.072 116.032 116.032 0 0 1-82.24 33.92h-19.648L759.68 598.4c11.968 10.88 21.504 23.68 28.608 38.4 7.104 14.784 10.688 30.848 10.688 48.32a116.096 116.096 0 0 1-116.224 116.224 112.64 112.64 0 0 1-81.92-33.92 119.488 119.488 0 0 1-24.576-37.248 114.304 114.304 0 0 1-8.96-45.056c0-17.472 3.392-33.536 10.24-48.256 6.784-14.72 16.192-27.584 28.16-38.464l-140.8-315.2a70.464 70.464 0 0 1-13.056 1.6 93.44 93.44 0 0 1-24.96-3.2 146.56 146.56 0 0 1-22.528-8.256L264.32 450.176c5.504 9.28 9.856 19.2 13.12 29.888a114.432 114.432 0 0 1-65.92 139.52c-13.888 6.08-29.056 9.088-45.44 9.088-15.808 0-30.784-3.008-44.992-9.024zM1024 892.288a32 32 0 0 1-32 32H32a32 32 0 1 1 0-64h960a32 32 0 0 1 32 32z" fill="#8B9EBC" p-id="8609"></path></svg>